<svg width="14" height="14" viewBox="0 0 14 14" fill="none" xmlns="http://www.w3.org/2000/svg">
<path fill-rule="evenodd" clip-rule="evenodd" d="M0.292893 0.292893C0.683418 -0.0976311 1.31658 -0.0976311 1.70711 0.292893L13.707 12.2928C14.0975 12.6833 14.0975 13.3165 13.707 13.707C13.3165 14.0975 12.6833 14.0975 12.2928 13.707L0.292893 1.70711C-0.0976311 1.31658 -0.0976311 0.683418 0.292893 0.292893Z" fill="#0E171B"/>
<path fill-rule="evenodd" clip-rule="evenodd" d="M0.292893 13.7071C-0.0976311 13.3166 -0.0976311 12.6834 0.292893 12.2929L12.2928 0.292992C12.6833 -0.0975322 13.3165 -0.0975326 13.707 0.292992C14.0975 0.683516 14.0975 1.31668 13.707 1.70721L1.70711 13.7071C1.31658 14.0976 0.683418 14.0976 0.292893 13.7071Z" fill="#0E171B"/>
</svg>
